<svg width="20" height="21" viewBox="0 0 20 21" fill="none" xmlns="http://www.w3.org/2000/svg">
<path d="M2.08332 10.5H4.90163C5.47263 10.5 5.99463 10.8226 6.24999 11.3333C6.50535 11.8441 7.02735 12.1667 7.59835 12.1667H12.4016C12.9726 12.1667 13.4946 11.8441 13.75 11.3333C14.0054 10.8226 14.5273 10.5 15.0984 10.5H17.9167M7.47213 3.83333H12.5279C13.4252 3.83333 13.8739 3.83333 14.2701 3.96997C14.6204 4.0908 14.9395 4.288 15.2042 4.54729C15.5036 4.8405 15.7042 5.24183 16.1056 6.04448L17.911 9.65542C18.0685 9.9704 18.1473 10.1279 18.2028 10.293C18.2521 10.4395 18.2877 10.5904 18.3092 10.7436C18.3333 10.916 18.3333 11.0921 18.3333 11.4443V13.1667C18.3333 14.5668 18.3333 15.2669 18.0608 15.8016C17.8212 16.272 17.4387 16.6545 16.9683 16.8942C16.4335 17.1667 15.7335 17.1667 14.3333 17.1667H5.66666C4.26653 17.1667 3.56646 17.1667 3.03168 16.8942C2.56128 16.6545 2.17882 16.272 1.93914 15.8016C1.66666 15.2669 1.66666 14.5668 1.66666 13.1667V11.4443C1.66666 11.0921 1.66666 10.916 1.6908 10.7436C1.71224 10.5904 1.74785 10.4395 1.79717 10.293C1.85271 10.1279 1.93146 9.9704 2.08895 9.65542L3.89442 6.04448C4.29574 5.24182 4.49641 4.8405 4.79578 4.54729C5.06052 4.288 5.37959 4.0908 5.7299 3.96997C6.12603 3.83333 6.57473 3.83333 7.47213 3.83333Z" stroke="#667085" stroke-width="1.67" stroke-linecap="round" stroke-linejoin="round"/>
</svg>
