<svg width="20" height="20" viewBox="0 0 20 20" fill="none" xmlns="http://www.w3.org/2000/svg">
<g clip-path="url(#clip0_247_1115)">
<path d="M0 13.617C0 10.0918 2.91988 7.23404 6.52174 7.23404C10.1236 7.23404 13.0435 10.0918 13.0435 13.617C13.0435 17.1423 10.1236 20 6.52174 20H0V13.617Z" fill="#FF0043" fill-opacity="0.75"/>
<path d="M0 6.38298C0 2.85776 2.91988 0 6.52174 0C10.1236 0 13.0435 2.85776 13.0435 6.38298C13.0435 9.90821 10.1236 12.766 6.52174 12.766H0V6.38298Z" fill="#0085FF" fill-opacity="0.75"/>
<path d="M6.95654 13.617C6.95654 10.0918 9.87641 7.23404 13.4783 7.23404C17.0802 7.23404 20 10.0918 20 13.617C20 17.1423 17.0802 20 13.4783 20H6.95654V13.617Z" fill="#FFAF00" fill-opacity="0.75"/>
</g>
<defs>
<clipPath id="clip0_247_1115">
<rect width="20" height="20" fill="white"/>
</clipPath>
</defs>
</svg>
