<svg width="20" height="21" viewBox="0 0 20 21" fill="none" xmlns="http://www.w3.org/2000/svg">
<path d="M9.16667 3.83333H6.5C5.09987 3.83333 4.3998 3.83333 3.86502 4.10582C3.39462 4.3455 3.01217 4.72795 2.77248 5.19836C2.5 5.73314 2.5 6.4332 2.5 7.83333V12.1667C2.5 12.9416 2.5 13.3291 2.58519 13.647C2.81635 14.5098 3.49022 15.1836 4.35295 15.4148C4.67087 15.5 5.05836 15.5 5.83333 15.5V17.4463C5.83333 17.8903 5.83333 18.1123 5.92436 18.2263C6.00352 18.3255 6.12356 18.3832 6.25045 18.3831C6.39636 18.3829 6.56973 18.2442 6.91646 17.9668L8.90434 16.3765C9.31043 16.0517 9.51347 15.8892 9.73957 15.7737C9.94017 15.6712 10.1537 15.5963 10.3743 15.551C10.6231 15.5 10.8831 15.5 11.4031 15.5H12.6667C14.0668 15.5 14.7669 15.5 15.3016 15.2275C15.772 14.9878 16.1545 14.6054 16.3942 14.135C16.6667 13.6002 16.6667 12.9001 16.6667 11.5V11.3333M16.7678 3.73223C17.7441 4.70854 17.7441 6.29146 16.7678 7.26777C15.7915 8.24408 14.2085 8.24408 13.2322 7.26777C12.2559 6.29146 12.2559 4.70854 13.2322 3.73223C14.2085 2.75592 15.7915 2.75592 16.7678 3.73223Z" stroke="#667085" stroke-width="1.67" stroke-linecap="round" stroke-linejoin="round"/>
</svg>
