<svg width="24" height="25" viewBox="0 0 24 25" fill="none" xmlns="http://www.w3.org/2000/svg">
<g filter="url(#filter0_d_247_442)">
<path d="M12 14C9.35828 14 7.00901 15.2755 5.51334 17.255C5.19143 17.681 5.03047 17.894 5.03574 18.1819C5.03981 18.4043 5.17948 18.6849 5.35448 18.8222C5.581 19 5.8949 19 6.5227 19H17.4773C18.1051 19 18.419 19 18.6455 18.8222C18.8205 18.6849 18.9602 18.4043 18.9643 18.1819C18.9695 17.894 18.8086 17.681 18.4867 17.255C16.991 15.2755 14.6417 14 12 14Z" stroke="#667085" stroke-width="1.67" stroke-linecap="round" stroke-linejoin="round"/>
<path d="M12 11.5C14.0711 11.5 15.75 9.82107 15.75 7.75C15.75 5.67893 14.0711 4 12 4C9.92894 4 8.25001 5.67893 8.25001 7.75C8.25001 9.82107 9.92894 11.5 12 11.5Z" stroke="#667085" stroke-width="1.67" stroke-linecap="round" stroke-linejoin="round"/>
</g>
<defs>
<filter id="filter0_d_247_442" x="0" y="0.5" width="24" height="24" filterUnits="userSpaceOnUse" color-interpolation-filters="sRGB">
<feFlood flood-opacity="0" result="BackgroundImageFix"/>
<feColorMatrix in="SourceAlpha" type="matrix" values="0 0 0 0 0 0 0 0 0 0 0 0 0 0 0 0 0 0 127 0" result="hardAlpha"/>
<feOffset dy="1"/>
<feGaussianBlur stdDeviation="1"/>
<feComposite in2="hardAlpha" operator="out"/>
<feColorMatrix type="matrix" values="0 0 0 0 0.0627451 0 0 0 0 0.0941176 0 0 0 0 0.156863 0 0 0 0.05 0"/>
<feBlend mode="normal" in2="BackgroundImageFix" result="effect1_dropShadow_247_442"/>
<feBlend mode="normal" in="SourceGraphic" in2="effect1_dropShadow_247_442" result="shape"/>
</filter>
</defs>
</svg>
