<svg width="26" height="18" viewBox="0 0 26 18" fill="none" xmlns="http://www.w3.org/2000/svg">
<path d="M18.383 3.85904C18.1608 3.8135 17.9565 3.75242 17.7958 3.66874C17.2973 3.40924 16.6911 2.62838 16.3642 2.17224C16.2838 2.0518 16.1985 1.93527 16.1085 1.823C15.8612 2.46639 15.6071 3.45066 15.6071 4.78925C15.6071 7.39679 18.45 9.86341 18.45 12.4052C18.45 13.0473 18.3495 13.6468 18.1997 14.1849C19.0871 13.9301 20.4352 13.9712 20.4352 13.9712C20.6223 13.9707 20.8092 13.958 20.9949 13.9332C21.1082 13.4613 21.1827 12.9498 21.1827 12.4052C21.1827 9.86341 18.3398 7.3968 18.3398 4.78925C18.3398 4.45743 18.3558 4.14775 18.383 3.85904Z" fill="#016AE5"/>
<path d="M21.1038 4.02026C20.8824 3.98411 20.659 3.96526 20.4351 3.96387C20.4351 3.96387 19.262 4.03917 18.383 3.85904C18.3558 4.14775 18.3398 4.45743 18.3398 4.78925C18.3398 7.3968 21.1827 9.86341 21.1827 12.4052C21.1827 12.9498 21.1082 13.4613 20.9949 13.9332C22.1234 13.7814 23.1609 13.1882 23.9105 12.2663C23.8106 9.77342 21.0724 7.34921 21.0724 4.78922C21.0724 4.51727 21.085 4.26324 21.1038 4.02026Z" fill="#0C75EE"/>
<path d="M21.1038 4.02026C21.085 4.26324 21.0419 4.5173 21.0419 4.78926C21.0419 7.34924 23.8106 9.77342 23.9105 12.2663C24.6581 11.3559 25.0422 10.1833 25.0463 8.96749C25.0453 7.76606 24.6434 6.60511 23.9139 5.69678C23.1845 4.78844 22.2066 4.19333 21.1038 4.02026Z" fill="#1682FF"/>
<path d="M1.34848 5.45391C0.4876 6.38818 0.00308298 7.65062 0 8.96746C0.00117826 10.1642 0.40023 11.3209 1.12477 12.2277C1.8493 13.1344 2.85133 13.7312 3.94909 13.9098C4.05915 13.4443 4.13136 12.9407 4.13136 12.4052C4.13136 10.0803 1.75448 7.81833 1.34848 5.45391Z" fill="#FFD058"/>
<path d="M1.34848 5.45391C1.75448 7.81833 4.13136 10.0803 4.13136 12.4052C4.13136 12.9407 4.05915 13.4443 3.94909 13.9098C4.17818 13.9489 4.40966 13.9694 4.6416 13.9712C4.6416 13.9712 5.75946 13.9374 6.62962 14.1236C6.77019 13.6012 6.86407 13.0233 6.86407 12.4053C6.86407 9.86345 4.02114 7.39683 4.02114 4.78928C4.02114 4.51494 4.03366 4.2587 4.05276 4.01385C3.02774 4.15597 2.07605 4.66272 1.34848 5.45391Z" fill="#FFC637"/>
<path d="M4.05276 4.01385C4.03366 4.2587 4.02114 4.51494 4.02114 4.78928C4.02114 7.39683 6.86407 9.86345 6.86407 12.4053C6.86407 13.0233 6.77019 13.6012 6.62962 14.1236C6.87693 14.1765 7.10536 14.2461 7.28105 14.3406C7.76464 14.6007 8.35462 15.3484 8.68783 15.8064C9.11709 15.0111 9.59678 13.81 9.59678 12.4052C9.59678 9.86341 6.75385 7.39679 6.75385 4.78925C6.75385 4.44768 6.77099 4.13034 6.79975 3.83445C6.18227 3.98084 5.38049 3.98707 4.9485 3.97627C4.84636 3.9685 4.744 3.96437 4.6416 3.9639C4.44454 3.96704 4.24786 3.98375 4.05276 4.01385Z" fill="#F7BA1F"/>
<path d="M12.5385 0C11.8512 0.00157102 11.1728 0.167653 10.5523 0.48625C9.77563 0.885024 8.83103 1.49176 8.37186 2.62434C8.05486 3.40624 7.98977 3.62096 7.97391 4.47273C7.91432 7.6736 10.9631 9.86342 10.9631 12.4052C10.9631 14.6138 9.77936 16.3205 9.46841 16.7309C10.3138 17.5436 11.4057 17.995 12.5384 18C13.6708 17.9883 14.7601 17.5308 15.6013 16.7136C15.9263 16.2816 17.0836 14.5917 17.0836 12.4052C17.0836 9.86343 14.2407 7.39681 14.2407 4.78926C14.2407 2.23608 15.1596 0.97111 15.1982 0.919131C14.4202 0.325658 13.4915 0.00474887 12.5385 0Z" fill="#6DBE46"/>
<path d="M23.5561 0.289907C23.5807 0.202726 23.6952 0.202726 23.7198 0.289907L23.9594 1.13858C23.9677 1.16799 23.9891 1.19101 24.0164 1.19997L24.8037 1.45827C24.8845 1.48481 24.8845 1.60824 24.8037 1.63477L24.0164 1.89308C23.9891 1.90203 23.9677 1.92505 23.9594 1.95447L23.7198 2.80314C23.6952 2.89032 23.5807 2.89032 23.5561 2.80314L23.3165 1.95447C23.3082 1.92505 23.2868 1.90203 23.2595 1.89308L22.4722 1.63477C22.3914 1.60824 22.3914 1.48481 22.4722 1.45827L23.2595 1.19997C23.2868 1.19101 23.3082 1.16799 23.3165 1.13858L23.5561 0.289907Z" fill="#F7BA1F"/>
</svg>
